<?xml version="1.0" encoding="UTF-8" standalone="no"?>
<svg
   width="868.64429"
   height="670"
   viewBox="0 0 868.64431 670"
   version="1.1"
   id="svg68"
   sodipodi:docname="undraw_book_reading_re_fu2c.svg"
   inkscape:export-filename="undraw_book_reading_re_fu2c.svg"
   inkscape:export-xdpi="96"
   inkscape:export-ydpi="96"
   inkscape:version="1.2.1 (9c6d41e4, 2022-07-14)"
   xmlns:inkscape="http://www.inkscape.org/namespaces/inkscape"
   xmlns:sodipodi="http://sodipodi.sourceforge.net/DTD/sodipodi-0.dtd"
   xmlns="http://www.w3.org/2000/svg"
   xmlns:svg="http://www.w3.org/2000/svg">
  <defs
     id="defs72" />
  <sodipodi:namedview
     id="namedview70"
     pagecolor="#505050"
     bordercolor="#eeeeee"
     borderopacity="1"
     inkscape:showpageshadow="0"
     inkscape:pageopacity="0"
     inkscape:pagecheckerboard="0"
     inkscape:deskcolor="#505050"
     showgrid="false"
     showguides="false"
     inkscape:lockguides="false"
     inkscape:zoom="0.33740101"
     inkscape:cx="-185.23952"
     inkscape:cy="349.73221"
     inkscape:window-width="1440"
     inkscape:window-height="900"
     inkscape:window-x="0"
     inkscape:window-y="0"
     inkscape:window-maximized="0"
     inkscape:current-layer="svg68" />
  <g
     id="g10"
     transform="matrix(1,0,0,1.0020738,0,-1.1241945e-6)">
    <g
       id="g6">
      <polygon
         points="363.05949,554.14986 348.99444,558.67469 360.81967,595.43236 370.34943,592.36656 "
         fill="#a0616a"
         id="polygon2" />
      <path
         d="m 369.26979,586.70427 -0.01,0.003 -9.99118,3.8814 -0.01,0.003 -2.31179,0.90222 5.15153,22.21616 0.27381,1.19036 6.77444,-2.17286 -0.15833,-1.22297 -0.6972,-5.55982 4.22262,4.42916 0.91735,0.96709 17.94886,-5.7649 c 1.06696,-0.34291 1.90851,-1.07932 2.40447,-2.00911 0.54555,-0.97494 0.69624,-2.17089 0.31928,-3.32178 -0.38128,-3.77859 -17.7611,-6.63275 -20.31032,-8.04302 l -2.07354,-6.45957 z"
         fill="#2f2e41"
         id="path4" />
    </g>
    <path
       d="m 343.32868,462.68598 c 1.54649,1.27573 2.63225,3.02315 3.09104,4.97472 v 0 l 2.04593,8.73622 21.58355,93.18277 -23.62444,8.88178 c -15.21611,-30.36918 -24.30667,-49.40239 -24.82061,-70.75634 -0.14421,-5.91632 0.37589,-12.02016 1.60068,-18.59037 0,0 -15.38245,10.47065 -33.66281,22.4545 -1.60497,1.0508 -3.23555,2.12019 -4.88827,3.18598 -15.16448,9.87612 -31.51145,20.23238 -42.41239,26.30107 -6.63236,3.69347 -12.97825,3.66439 -18.67127,1.40758 -16.25133,-6.39713 -27.32557,-30.80917 -25.17483,-38.37643 l 24.55071,-36.54031 30.37189,15.14211 3.17475,1.57982 53.12041,-31.17513 c 7.75053,-4.54861 17.51725,-3.77033 24.44961,1.94832 l 9.26604,7.64373 z"
       fill="#2f2e41"
       id="path8" />
  </g>
  <path
     d="m 839.89755,282.72306 c 7.5,-13.8286 12.37,-27.38669 14.11005,-39.89256 -6.95349,-0.81473 -13.10406,-0.24714 -18.47479,1.55963 9.24677,-15.4407 15.42004,-34.45632 7.38477,-44.21791 -5.06,-5.38114 -11.59998,-9.40949 -19.33002,-12.08501 2.5,-11.594 2.53003,-22.4565 -0.32001,-32.00624 -13.21997,-44.46201 -100.71997,35.64378 -156.56,0.97198 -23.40997,-14.53007 -48.60999,3.77784 -69.01996,33.21878 2.79999,9.79028 7.96997,18.88906 15.22998,26.03385 -9.25,-0.66134 -18.34998,-3.387 -26.45001,-7.91635 -21.83997,39.27128 -35.03998,88.43303 -28.42999,110.659 4.28998,14.41986 14.56,24.10991 28.97003,29.10022 -2.5,11.594 51.51654,94.8211 61.46991,94.73456 26.46008,-0.23002 34.68768,-60.45691 52.35406,16.7237 l -39.35406,240.80928 h 57 V 452.07073 c 15.86017,-24.53901 32.24268,-8.12601 70,-27.22505 115.80963,-58.58082 66.43896,-123.14779 51.42004,-142.12262 z"
     fill="#f2f2f2"
     id="path12"
     style="stroke-width:1.00104" />
  <path
     d="m 355.84411,176.26487 c 9.41154,-17.35313 15.52276,-34.3668 17.7063,-50.06006 -8.72574,-1.02238 -16.44392,-0.31015 -23.1835,1.95714 11.60351,-19.37611 19.35018,-43.238268 9.26693,-55.487819 -6.34965,-6.752634 -14.55648,-11.807706 -24.2567,-15.165134 3.13718,-14.54899 3.17486,-28.180039 -0.40157,-40.16373 C 318.3862,-38.448861 208.58491,62.073633 138.51283,18.564981 109.13632,0.33159623 77.51353,23.305671 51.90163,60.25028 55.41526,72.535826 61.90292,83.953634 71.0133,92.919439 59.40573,92.089542 47.98643,88.669174 37.82192,82.985442 10.41557,132.26585 -6.14876,193.95754 2.14593,221.84831 c 5.38337,18.09509 18.27093,30.25484 36.35368,36.51702 -3.13718,14.54899 64.64666,118.98836 77.13686,118.87976 33.20402,-0.28866 43.5286,-75.86567 65.69765,20.9861 l -49.38431,302.1848 h 71.5277 v -311.6415 c 19.90248,-30.7933 40.46043,-10.1971 87.84103,-34.16394 145.32625,-73.51143 83.37239,-154.53472 64.52557,-178.34568 z"
     fill="#f2f2f2"
     id="path14"
     style="stroke-width:1.00104" />
  <path
     d="m 502.21473,682.18892 c 2.06592,0.12964 3.20768,-2.44242 1.64468,-3.94149 l -0.1555,-0.61947 c 0.0205,-0.0496 0.041,-0.0992 0.0618,-0.14869 2.08924,-4.99213 9.16992,-4.95768 11.24139,0.0418 1.83859,4.43735 4.17942,8.88228 4.75579,13.57403 0.25838,2.07109 0.14213,4.18102 -0.31648,6.21334 4.30807,-9.43011 6.57515,-19.72744 6.57515,-30.08303 0,-2.60191 -0.14213,-5.20378 -0.43275,-7.79909 -0.239,-2.12294 -0.56839,-4.23286 -0.99471,-6.32343 -2.30575,-11.30058 -7.29852,-22.06391 -14.50012,-31.05389 -3.46197,-1.8964 -6.34906,-4.86071 -8.09295,-8.41392 -0.62649,-1.28157 -1.11739,-2.66014 -1.34991,-4.0646 0.39398,0.0518 1.48556,-5.961 1.18841,-6.3299 0.54906,-0.83489 1.53178,-1.24991 2.13144,-2.06461 2.98232,-4.05179 7.0912,-3.34434 9.23621,2.16174 4.58224,2.31746 4.62659,6.16081 1.81495,9.85723 -1.78878,2.35169 -2.03456,5.53378 -3.60408,8.05144 0.16151,0.20714 0.32944,0.40779 0.4909,0.61494 2.96106,3.80575 5.52208,7.89636 7.68104,12.19383 -0.61017,-4.7761 0.29067,-10.53003 1.82641,-14.23907 1.74819,-4.22606 5.02491,-7.78526 7.91045,-11.43868 3.46601,-4.38832 10.57337,-2.47318 11.18401,3.08972 0.006,0.0538 0.0117,0.10766 0.0173,0.16153 -0.4286,0.24229 -0.84849,0.4997 -1.25864,0.77151 -2.33949,1.55044 -1.53096,5.1846 1.24107,5.61337 l 0.0628,0.009 c -0.15503,1.54686 -0.41984,3.08081 -0.80734,4.58886 3.70179,14.34548 -4.29011,19.57041 -15.70147,19.80511 -0.25191,0.12943 -0.49738,0.25886 -0.74929,0.38188 1.15617,3.262 2.07982,6.60814 2.76441,9.9996 0.61359,2.99664 1.03991,6.02565 1.27885,9.06765 0.29715,3.838 0.27129,7.69552 -0.0517,11.52709 l 0.0194,-0.1359 c 0.82024,-4.21989 3.10671,-8.16152 6.4266,-10.89283 4.94561,-4.07107 11.93282,-5.57021 17.26826,-8.84255 2.56833,-1.57522 5.85945,0.46041 5.41121,3.44421 l -0.0218,0.14291 c -0.79443,0.32356 -1.56947,0.69899 -2.31871,1.11964 -0.4286,0.24235 -0.84848,0.4997 -1.25864,0.77153 -2.33949,1.55048 -1.53096,5.18464 1.24107,5.61341 l 0.0628,0.009 c 0.0452,0.007 0.084,0.0129 0.12911,0.0195 -1.36282,3.24252 -3.26168,6.25216 -5.63854,8.84753 -2.31463,12.52305 -12.25603,13.7112 -22.89022,10.06437 h -0.006 c -1.16259,5.07428 -2.86128,10.03203 -5.0444,14.75675 H 502.6668 c -0.0646,-0.20064 -0.12274,-0.40776 -0.18089,-0.60843 1.6664,0.10365 3.34571,0.007 4.98629,-0.29763 -1.33701,-1.64399 -2.67396,-3.30092 -4.01097,-4.94486 -0.0323,-0.0324 -0.0582,-0.0647 -0.084,-0.0971 -0.67817,-0.84133 -1.36282,-1.67629 -2.04099,-2.51767 l -3.6e-4,-10e-4 c -0.0424,-2.58289 0.26652,-5.15729 0.87876,-7.65568 l 5.7e-4,-3.5e-4 z"
     fill="#f2f2f2"
     id="path16"
     style="stroke-width:1.00104" />
  <path
     d="m 606.6062,676.36234 c 2.81252,0.17649 4.3669,-3.32508 2.23905,-5.36589 l -0.21169,-0.84335 c 0.0279,-0.0676 0.0559,-0.13501 0.0841,-0.20244 2.84427,-6.79622 12.48382,-6.74934 15.30389,0.0569 2.50303,6.04096 5.68982,12.09222 6.47448,18.47953 0.35176,2.81956 0.19349,5.692 -0.43086,8.45875 5.86496,-12.83802 8.95133,-26.8567 8.95133,-40.95468 0,-3.54219 -0.19349,-7.08436 -0.58914,-10.61757 -0.32537,-2.89013 -0.7738,-5.76257 -1.35418,-8.60864 -3.13902,-15.38449 -9.93612,-30.03756 -19.74029,-42.27639 -4.71308,-2.58175 -8.64354,-6.61732 -11.01765,-11.45463 -0.8529,-1.7447 -1.52121,-3.62146 -1.83776,-5.53348 0.53635,0.0704 2.02242,-8.11523 1.61788,-8.61745 0.74748,-1.13662 2.08534,-1.70162 2.90171,-2.81074 4.0601,-5.51606 9.65388,-4.55293 12.57406,2.94297 6.23821,3.15496 6.29859,8.38725 2.47085,13.41952 -2.43522,3.20156 -2.76982,7.53363 -4.90656,10.96115 0.21987,0.28199 0.4485,0.55516 0.66831,0.83715 4.03115,5.18112 7.51769,10.75001 10.45688,16.60055 -0.83067,-6.50212 0.39572,-14.33543 2.48645,-19.38488 2.37997,-5.75333 6.84085,-10.59877 10.76919,-15.5725 4.71858,-5.97421 14.39447,-3.36695 15.22578,4.2063 0.008,0.0733 0.0159,0.14657 0.0236,0.21991 -0.58349,0.32984 -1.15512,0.6803 -1.71349,1.05033 -3.18495,2.11075 -2.08424,7.05823 1.68957,7.64196 l 0.0855,0.0132 c -0.21106,2.10589 -0.57157,4.19419 -1.09911,6.24724 5.03958,19.52977 -5.84051,26.64291 -21.3758,26.96245 -0.34295,0.1762 -0.67713,0.3524 -1.02007,0.51989 1.574,4.44084 2.83144,8.99625 3.76344,13.61334 0.83534,4.07958 1.41572,8.20323 1.74102,12.34459 0.40454,5.22501 0.36933,10.47659 -0.0704,15.69283 l 0.0264,-0.18501 c 1.11666,-5.7449 4.22944,-11.11099 8.7491,-14.82936 6.73289,-5.5423 16.2452,-7.58322 23.5088,-12.03815 3.49649,-2.14449 7.97699,0.62678 7.36676,4.6889 -0.01,0.0648 -0.0196,0.1297 -0.0297,0.19454 -1.08153,0.4405 -2.13666,0.9516 -3.15667,1.52427 -0.58349,0.32993 -1.15512,0.6803 -1.7135,1.05034 -3.18495,2.11083 -2.08423,7.05832 1.68958,7.64205 l 0.0855,0.0132 c 0.0615,0.009 0.11431,0.0176 0.17577,0.0265 -1.85532,4.41434 -4.44041,8.51162 -7.67624,12.04493 -3.15112,17.04873 -16.68522,18.66627 -31.16248,13.7015 h -0.009 c -1.58274,6.90808 -3.89532,13.65749 -6.86739,20.08967 h -24.53247 c -0.088,-0.27313 -0.1671,-0.55513 -0.24627,-0.82832 2.26862,0.14108 4.55481,0.009 6.78828,-0.40519 -1.82019,-2.23812 -3.6403,-4.49384 -5.46049,-6.73187 -0.044,-0.0441 -0.0792,-0.0881 -0.11431,-0.13218 -0.92325,-1.1454 -1.85533,-2.2821 -2.77858,-3.42753 l -4.9e-4,-0.001 c -0.0578,-3.51632 0.36284,-7.02108 1.19633,-10.42236 l 7.8e-4,-4.8e-4 z"
     fill="#f2f2f2"
     id="path18"
     style="stroke-width:1.00104" />
  <path
     d="m 744.21473,682.18892 c 2.06592,0.12964 3.20768,-2.44242 1.64468,-3.94149 l -0.1555,-0.61947 c 0.0205,-0.0496 0.0411,-0.0992 0.0618,-0.14869 2.08924,-4.99213 9.16992,-4.95768 11.24139,0.0418 1.83859,4.43735 4.17942,8.88228 4.75579,13.57403 0.25838,2.07109 0.14213,4.18102 -0.31648,6.21334 4.30807,-9.43011 6.57515,-19.72744 6.57515,-30.08303 0,-2.60191 -0.14213,-5.20378 -0.43275,-7.79909 -0.239,-2.12294 -0.56839,-4.23286 -0.99471,-6.32343 -2.30575,-11.30058 -7.29852,-22.06391 -14.50012,-31.05389 -3.46197,-1.8964 -6.34906,-4.86071 -8.09295,-8.41392 -0.62649,-1.28157 -1.11739,-2.66014 -1.34991,-4.0646 0.39398,0.0518 1.48556,-5.961 1.18841,-6.3299 0.54906,-0.83489 1.53178,-1.24991 2.13144,-2.06461 2.98232,-4.05179 7.0912,-3.34434 9.23621,2.16174 4.58224,2.31746 4.62659,6.16081 1.81495,9.85723 -1.78878,2.35169 -2.03456,5.53378 -3.60408,8.05144 0.16151,0.20714 0.32944,0.40779 0.4909,0.61494 2.96106,3.80575 5.52208,7.89636 7.68104,12.19383 -0.61017,-4.7761 0.29067,-10.53003 1.82641,-14.23907 1.74819,-4.22606 5.02491,-7.78526 7.91045,-11.43868 3.46601,-4.38832 10.57337,-2.47318 11.18401,3.08972 0.006,0.0538 0.0117,0.10766 0.0173,0.16153 -0.4286,0.24229 -0.84849,0.4997 -1.25864,0.77151 -2.33949,1.55044 -1.53096,5.1846 1.24107,5.61337 l 0.0628,0.009 c -0.15503,1.54686 -0.41984,3.08081 -0.80734,4.58886 3.70179,14.34548 -4.29011,19.57041 -15.70147,19.80511 -0.25191,0.12943 -0.49738,0.25886 -0.74929,0.38188 1.15617,3.262 2.07982,6.60814 2.76441,9.9996 0.61359,2.99664 1.03991,6.02565 1.27885,9.06765 0.29715,3.838 0.27129,7.69552 -0.0517,11.52709 l 0.0194,-0.1359 c 0.82024,-4.21989 3.10671,-8.16152 6.4266,-10.89283 4.94561,-4.07107 11.93282,-5.57021 17.26826,-8.84255 2.56833,-1.57522 5.85945,0.46041 5.41121,3.44421 l -0.0218,0.14291 c -0.79443,0.32356 -1.56947,0.69899 -2.31871,1.11964 -0.4286,0.24235 -0.84848,0.4997 -1.25864,0.77153 -2.33949,1.55048 -1.53096,5.18464 1.24107,5.61341 l 0.0628,0.009 c 0.0452,0.007 0.084,0.0129 0.12911,0.0195 -1.36282,3.24252 -3.26168,6.25216 -5.63854,8.84753 -2.31463,12.52305 -12.25603,13.7112 -22.89022,10.06437 h -0.006 c -1.16259,5.07428 -2.86128,10.03203 -5.0444,14.75675 H 744.6668 c -0.0646,-0.20064 -0.12274,-0.40776 -0.18089,-0.60843 1.6664,0.10365 3.34571,0.007 4.98629,-0.29763 -1.33701,-1.64399 -2.67396,-3.30092 -4.01097,-4.94486 -0.0323,-0.0324 -0.0582,-0.0647 -0.084,-0.0971 -0.67817,-0.84133 -1.36282,-1.67629 -2.04099,-2.51767 l -3.6e-4,-10e-4 c -0.0425,-2.58289 0.26652,-5.15729 0.87876,-7.65568 l 5.7e-4,-3.5e-4 z"
     fill="#f2f2f2"
     id="path20"
     style="stroke-width:1.00104" />
  <path
     d="m 296.83106,675.8337 c 2.88026,0.18074 4.47207,-3.40517 2.29298,-5.49513 l -0.21679,-0.86366 c 0.0285,-0.0692 0.0572,-0.13827 0.0861,-0.20732 2.91278,-6.95991 12.78449,-6.91189 15.67248,0.0584 2.56331,6.18646 5.82686,12.38346 6.63042,18.9246 0.36023,2.88747 0.19815,5.82907 -0.44123,8.66249 6.00622,-13.14723 9.16692,-27.50355 9.16692,-41.94107 0,-3.62751 -0.19815,-7.25499 -0.60333,-10.87332 -0.3332,-2.95974 -0.79243,-5.90135 -1.3868,-8.81598 -3.21462,-15.75501 -10.17543,-30.76099 -20.21573,-43.2946 -4.82659,-2.64393 -8.85172,-6.77669 -11.28301,-11.73051 -0.87344,-1.78673 -1.55785,-3.7087 -1.88202,-5.66676 0.54927,0.0721 2.07113,-8.31068 1.65685,-8.82499 0.76548,-1.164 2.13557,-1.74261 2.9716,-2.87844 4.15789,-5.64891 9.88639,-4.66259 12.87691,3.01385 6.38845,3.23094 6.45029,8.58925 2.53036,13.74272 -2.49387,3.27866 -2.83653,7.71507 -5.02473,11.22514 0.22517,0.28878 0.4593,0.56854 0.68441,0.85733 4.12824,5.3059 7.69876,11.00892 10.70873,17.00034 -0.85068,-6.6587 0.40525,-14.68069 2.54633,-19.85176 2.43729,-5.89188 7.00561,-10.85403 11.02857,-15.94755 4.83223,-6.1181 14.74115,-3.44805 15.59249,4.30762 0.008,0.0751 0.0163,0.1501 0.0241,0.2252 -0.59754,0.33779 -1.18294,0.69668 -1.75476,1.07562 -3.26166,2.16159 -2.13444,7.22825 1.73026,7.82602 l 0.0875,0.0135 c -0.21614,2.1566 -0.58533,4.2952 -1.12558,6.3977 5.16095,20.00013 -5.98117,27.2846 -21.89063,27.61183 -0.35121,0.18045 -0.69344,0.3609 -1.04464,0.5324 1.61191,4.5478 2.89963,9.21293 3.85408,13.94122 0.85545,4.17785 1.44982,8.40081 1.78295,12.64191 0.41428,5.35086 0.37822,10.72891 -0.072,16.07079 l 0.027,-0.18947 c 1.14356,-5.88328 4.3313,-11.3786 8.95982,-15.18652 6.89505,-5.67579 16.63647,-7.76588 24.07501,-12.32809 3.5807,-2.19613 8.16912,0.64189 7.54419,4.80184 -0.01,0.0664 -0.0201,0.13284 -0.0304,0.19923 -1.10758,0.45111 -2.18812,0.97452 -3.23269,1.56099 -0.59754,0.33787 -1.18294,0.69668 -1.75477,1.07563 -3.26166,2.16166 -2.13443,7.22831 1.73027,7.8261 l 0.0876,0.0135 c 0.063,0.009 0.11707,0.0181 0.18,0.0271 -1.90001,4.52065 -4.54736,8.71663 -7.86112,12.33503 -3.22701,17.45933 -17.08708,19.11584 -31.91303,14.03151 h -0.009 c -1.62086,7.07445 -3.98914,13.98642 -7.03278,20.57352 H 297.4606 c -0.0901,-0.27972 -0.17112,-0.5685 -0.2522,-0.84825 2.32326,0.14446 4.66451,0.009 6.95178,-0.41496 -1.86402,-2.29202 -3.72798,-4.60208 -5.592,-6.89402 -0.045,-0.0451 -0.0811,-0.0902 -0.11707,-0.13536 -0.94549,-1.17298 -1.90001,-2.33706 -2.8455,-3.51008 l -5e-4,-0.001 c -0.0592,-3.60101 0.37158,-7.19017 1.22515,-10.67338 l 7.9e-4,-4.9e-4 z"
     fill="#f2f2f2"
     id="path22"
     style="stroke-width:1.00104" />
  <path
     d="m 161.21473,682.18892 c 2.06592,0.12964 3.20768,-2.44242 1.64468,-3.94149 l -0.1555,-0.61947 c 0.0205,-0.0496 0.041,-0.0992 0.0618,-0.14869 2.08924,-4.99213 9.16992,-4.95768 11.24139,0.0418 1.83859,4.43735 4.17942,8.88228 4.75579,13.57403 0.25838,2.07109 0.14213,4.18102 -0.31648,6.21334 4.30807,-9.43011 6.57515,-19.72744 6.57515,-30.08303 0,-2.60191 -0.14213,-5.20378 -0.43275,-7.79909 -0.239,-2.12294 -0.56839,-4.23286 -0.99471,-6.32343 -2.30575,-11.30058 -7.29852,-22.06391 -14.50012,-31.05389 -3.46197,-1.8964 -6.34906,-4.86071 -8.09295,-8.41392 -0.62649,-1.28157 -1.11739,-2.66014 -1.34991,-4.0646 0.39398,0.0518 1.48556,-5.961 1.18841,-6.3299 0.54906,-0.83489 1.53178,-1.24991 2.13144,-2.06461 2.98232,-4.05179 7.0912,-3.34434 9.23621,2.16174 4.58224,2.31746 4.62659,6.16081 1.81495,9.85723 -1.78878,2.35169 -2.03456,5.53378 -3.60408,8.05144 0.16151,0.20714 0.32944,0.40779 0.4909,0.61494 2.96106,3.80575 5.52208,7.89636 7.68104,12.19383 -0.61017,-4.7761 0.29067,-10.53003 1.82641,-14.23907 1.74819,-4.22606 5.02491,-7.78526 7.91045,-11.43868 3.46601,-4.38832 10.57337,-2.47318 11.18401,3.08972 0.006,0.0538 0.0117,0.10766 0.0173,0.16153 -0.4286,0.24229 -0.84849,0.4997 -1.25864,0.77151 -2.33949,1.55044 -1.53096,5.1846 1.24107,5.61337 l 0.0628,0.009 c -0.15503,1.54686 -0.41984,3.08081 -0.80734,4.58886 3.70179,14.34548 -4.29011,19.57041 -15.70147,19.80511 -0.25191,0.12943 -0.49738,0.25886 -0.74929,0.38188 1.15617,3.262 2.07982,6.60814 2.76441,9.9996 0.61359,2.99664 1.03991,6.02565 1.27885,9.06765 0.29715,3.838 0.27129,7.69552 -0.0517,11.52709 l 0.0194,-0.1359 c 0.82024,-4.21989 3.10671,-8.16152 6.4266,-10.89283 4.94561,-4.07107 11.93282,-5.57021 17.26826,-8.84255 2.56833,-1.57522 5.85945,0.46041 5.41121,3.44421 l -0.0218,0.14291 c -0.79443,0.32356 -1.56947,0.69899 -2.31871,1.11964 -0.4286,0.24235 -0.84848,0.4997 -1.25864,0.77153 -2.33949,1.55048 -1.53096,5.18464 1.24107,5.61341 l 0.0628,0.009 c 0.0452,0.007 0.084,0.0129 0.12911,0.0195 -1.36282,3.24252 -3.26168,6.25216 -5.63854,8.84753 -2.31463,12.52305 -12.25603,13.7112 -22.89022,10.06437 h -0.006 c -1.16259,5.07428 -2.86128,10.03203 -5.0444,14.75675 H 161.6668 c -0.0646,-0.20064 -0.12274,-0.40776 -0.18089,-0.60843 1.6664,0.10365 3.34571,0.007 4.98629,-0.29763 -1.33701,-1.64399 -2.67396,-3.30092 -4.01097,-4.94486 -0.0323,-0.0324 -0.0582,-0.0647 -0.084,-0.0971 -0.67817,-0.84133 -1.36282,-1.67629 -2.04099,-2.51767 l -3.6e-4,-10e-4 c -0.0425,-2.58289 0.26652,-5.15729 0.87876,-7.65568 l 5.7e-4,-3.5e-4 z"
     fill="#f2f2f2"
     id="path24"
     style="stroke-width:1.00104" />
  <g
     id="g30"
     transform="matrix(1,0,0,1.0020738,0,-1.1241945e-6)">
    <path
       d="m 234.71943,383.12245 c 0,0 -31.90189,-1.49882 -24.8741,7.36742 4.57327,5.76964 25.89367,38.26549 37.98906,44.77036 6.02338,3.23936 13.52581,0.62301 16.24186,-5.65375 l 22.54049,-52.09067 -14.78861,-5.36472 -17.89388,41.21692 -19.21482,-30.24557 z"
       fill="#a0616a"
       id="path26" />
    <circle
       cx="279.50732"
       cy="369.01266"
       r="11"
       fill="#a0616a"
       id="circle28" />
  </g>
  <path
     d="m 292.17868,430.56161 -42.80371,-4.29992 0.17383,-0.58225 c 8.62744,-28.85952 15.67334,-54.03273 14.49512,-69.81637 -0.0337,-0.44917 0.18457,-0.87486 0.56982,-1.11265 0.39014,-0.23877 0.87549,-0.24172 1.2666,-0.005 l 45.25586,27.44939 -3.40332,15.42646 z"
     fill="#e6e6e6"
     id="path32"
     style="stroke-width:1.00104" />
  <polygon
     points="209.42833,494.21938 225.42833,453.21938 244.42833,457.21938 254.2866,489.36958 "
     fill="#a0616a"
     id="polygon34"
     transform="matrix(1,0,0,1.0020738,0,-1.1241945e-6)" />
  <path
     d="m 255.40831,433.23596 c -1.07001,7.65586 -1.32001,14.89082 0.02,18.91915 0.35629,1.0711 5.69178,8.90117 6,10.02075 2.75418,10.00422 -9,12.02488 -9,12.02488 l -45.09302,15.00165 c -2.5966,0.86385 -4.78235,-2.15023 -3.12334,-4.33033 3.69858,-4.86032 7.07707,-11.88257 6.83635,-21.18306 -0.37512,-14.49321 -6.77592,-37.54311 -10.31388,-49.26326 -1.4559,-4.82293 -1.10486,-10.00581 0.98004,-14.59105 l 5.03386,-11.07078 7.32001,-16.08328 2.35999,-11.71424 21,1.00208 2.59003,9.52972 19.53998,29.89183 c 0.78998,1.21252 1.31,2.56531 1.53998,3.9582 0.31,1.7436 0.16003,3.56738 -0.45001,5.28095 -2.02997,5.7018 -4.09998,14.38977 -5.23999,22.60678 z"
     fill="#f5891d"
     id="path36"
     style="stroke-width:1.00104" />
  <path
     d="m 197.05752,348.33731 c 8.38995,10.48171 -6.48999,27.35666 2.63,37.20699 -1.75,0.70147 -3.62,0.97205 -5.5,0.88183 -0.09,-0.32067 -0.19,-0.64134 -0.29004,-0.95198 -0.81,-2.52518 -1.88995,-4.96022 -3.23999,-7.24497 0.26001,2.48512 0.06,5.03042 -0.59998,7.4454 -1.41003,-0.43088 -2.77002,-1.05218 -4.03003,-1.81376 -0.15997,-0.0901 -0.29999,-0.18036 -0.45996,-0.29058 -4.12006,-7.70595 -5.71002,-16.7747 -4.26001,-25.39258 -2.78003,4.01833 -5.46002,8.23708 -6.94,12.87669 -5.01001,-7.93646 -8.48999,-16.98516 -8.27002,-26.3245 0.22003,-10.39151 5.79999,-21.05358 15.28003,-25.2823 3.90997,-1.74366 8.54999,-2.52525 11.27997,-5.83208 1.47003,-1.76366 2.16998,-4.02836 3.22998,-6.07257 1.06,-2.04427 2.71002,-4.02836 4.99005,-4.35906 1.35999,-0.19039 2.81,0.56116 3.56,1.64341 -3.69,4.04836 -3.48004,10.62196 -2.28003,16.1434 1.28003,5.93231 5.15002,13.28751 1.20001,17.88706 -2.42999,2.83583 -14.33002,-0.54116 -6.29999,9.47957 z"
     fill="#2f2e41"
     id="path38"
     style="stroke-width:1.00104" />
  <path
     d="m 245.88152,339.39086 c -0.54166,-1.89974 3.19176,9.71298 1.39023,9.92262 -8.20531,0.94327 -19.46907,5.85387 -25.184,8.14478 -0.25738,-0.03 -0.51476,-0.0599 -0.76452,-0.0974 -0.61312,-0.0675 -1.21114,-0.16474 -1.80153,-0.27701 -13.30712,-2.52298 -18.42436,-23.00667 -18.42436,-23.19384 0,-0.92083 2.2055,-26.21256 5.67986,-26.58688 0.90077,-0.0974 1.81669,-0.14974 2.74772,-0.14974 h 8.62162 c 1.8318,-0.38931 3.64848,-0.65882 5.41213,-0.78609 h 0.0152 c 24.85135,-2.83971 36.85098,8.10202 29.76309,22.17536 -0.008,0.015 -0.0227,0.03 -0.0303,0.0449 -0.37094,0.55399 -0.69642,1.07807 -0.98407,1.57967 -0.28007,0.47165 -0.51472,0.92083 -0.71906,1.34757 -1.58204,3.29413 2.48454,7.43916 -0.21196,8.21285 -3.58634,1.02899 9.43221,34.85023 -4.76294,34.85023 6.90484,1.96724 0.74711,-29.94651 -0.74711,-35.18714 z"
     fill="#2f2e41"
     id="path40"
     style="stroke-width:1.00104" />
  <ellipse
     cx="230.38731"
     cy="338.7807"
     fill="#a0616a"
     id="circle42"
     rx="20.412741"
     ry="20.455072"
     style="stroke-width:1.00104" />
  <path
     d="m 253.33749,329.6587 c -0.33997,0.18036 -0.66998,0.34068 -1.01001,0.51101 -0.35999,0.17039 -0.71997,0.34073 -1.06995,0.50103 -2.28003,1.03217 -4.42004,1.76366 -6.38,2.09437 -0.55005,-1.72354 -1.29004,-3.38701 -2.21002,-4.95025 0.17999,1.73357 0.03,3.50727 -0.44,5.19073 -2.72998,-0.05 -5.02002,-1.08226 -6.75,-3.34689 -0.09,-2.33486 -0.60999,-4.65966 -1.54999,-6.81415 0.17999,2.38493 -0.48004,4.81997 -1.79999,6.81415 l 0.34998,28.04803 c -7,4.65961 8.12,20.37213 6,24.04978 -0.60999,-0.0702 -21.40002,-26.16414 -21.98999,-26.27441 -13.31,-2.52518 -21.76001,-24.49069 -20.67999,-25.73324 0,-3.65753 0.84998,-7.10468 2.37,-10.19108 1.96997,-4.00829 5.06,-7.37525 8.89001,-9.69003 2.25,-1.09229 4.62994,-1.98414 7.09998,-2.66555 0.06,-0.02 0.10999,-0.03 0.16998,-0.05 0.75,-0.20042 1.52002,-0.39083 2.28003,-0.5411 1.57001,-0.33071 3.15997,-0.58122 4.77997,-0.73155 0.12,-0.0103 0.23004,-0.0103 0.34003,-0.0103 0.65997,0 1.27997,0.18042 1.82001,0.50103 h 0.02 c 0.39001,0.24055 0.74005,0.54117 1.01001,0.91192 0.47003,0.60123 0.73999,1.34274 0.73999,2.16445 h 7.57001 c 0.28003,0 0.56,0 0.84003,0.02 10.54999,0.42085 19.02002,8.72808 19.57001,19.11959 0.02,0.36073 0.03,0.71143 0.03,1.07223 z"
     fill="#2f2e41"
     id="path44"
     style="stroke-width:1.00104" />
  <path
     d="m 222.15359,309.64338 c 0,7.44254 -6.02089,13.47591 -13.44803,13.47591 -7.42714,0 -13.44803,-6.03337 -13.44803,-13.47591 0,-7.44254 6.02089,-13.47592 13.44803,-13.47592 7.42714,0 13.44803,6.03338 13.44803,13.47592 z"
     fill="#2f2e41"
     id="path46"
     style="stroke-width:1.00104" />
  <path
     d="m 849.47751,610.31624 v -39.25469 c 5.27917,-2.17174 9,-7.36834 9,-13.44109 0,-6.07274 -3.72083,-11.26935 -9,-13.44109 v -16.62112 c 0,-1.93699 -1.56702,-3.50726 -3.5,-3.50726 -1.93298,0 -3.5,1.57027 -3.5,3.50726 v 15.53214 c -140.76465,5.03361 -280.37286,9.8115 -354,0 v -15.53214 c 0,-1.93699 -1.56702,-3.50726 -3.5,-3.50726 -1.93298,0 -3.5,1.57027 -3.5,3.50726 v 15.53214 h -352 v -15.53214 c 0,-1.93699 -1.56702,-3.50726 -3.5,-3.50726 -1.93298,0 -3.5,1.57027 -3.5,3.50726 v 16.25439 c -5.80328,1.8984 -10,7.3585 -10,13.80782 0,6.44933 4.19672,11.90942 10,13.80782 v 38.52126 c -5.80328,1.89839 -10,7.35848 -10,13.8078 0,6.44934 4.19672,11.90942 10,13.80782 v 57.33943 c 0,1.93698 1.56702,3.50725 3.5,3.50725 1.93298,0 3.5,-1.57027 3.5,-3.50725 v -56.61718 h 352 v 56.61718 c 0,1.93698 1.56702,3.50725 3.5,3.50725 1.93298,0 3.5,-1.57027 3.5,-3.50725 v -56.61718 h 354 v 56.61718 c 0,1.93698 1.56702,3.50725 3.5,3.50725 1.93298,0 3.5,-1.57027 3.5,-3.50725 v -57.70616 c 5.27917,-2.17174 9,-7.36834 9,-13.44109 0,-6.07274 -3.72083,-11.26935 -9,-13.44108 z m -720,-38.16571 c 136.9472,-11.15088 270.94458,-20.62477 352,0 -7.48779,12.47143 -7.62744,24.83247 0,37.07673 -93.41211,11.04966 -218.42416,7.50271 -352,0 4.20108,-11.00079 3.42603,-23.61026 0,-37.07673 z m 359,37.07673 v -37.07673 h 354 c -14.82074,12.02868 -17.07416,24.33742 0,37.07673 -68.50842,23.45101 -221.00146,7.10688 -354,0 z"
     fill="#e6e6e6"
     id="path48"
     style="stroke-width:1.00104" />
  <path
     d="m 291.6777,445.9548 c -0.72559,0 -1.46094,-0.0724 -2.19971,-0.22214 l -41.87598,-8.52644 c -2.6665,-0.54311 -4.91406,-2.24292 -6.16602,-4.66396 -1.25196,-2.42102 -1.3418,-5.2413 -0.24658,-7.7367 l 16.19287,-36.91135 c 0.8877,-2.0247 2.96777,-3.3135 5.16895,-3.17845 l 37.60791,2.102 c 1.01855,0.0441 1.60059,-0.58324 1.8291,-1.19975 0.22852,-0.61749 0.18945,-1.4943 -0.60498,-2.10592 l -36.18164,-27.83201 c -0.24756,-0.19376 -0.30127,-0.53627 -0.12451,-0.79657 0.17725,-0.2603 0.51367,-0.33565 0.78369,-0.17516 l 46.37402,27.12938 c 3.41406,1.99829 4.99902,6.04082 3.85449,9.83187 l -14.05029,46.54654 c -1.41455,4.68742 -5.6582,7.73867 -10.36133,7.73867 z m -26.32324,-90.38237 0.003,0.002 z"
     fill="#3f3d56"
     id="path50"
     style="stroke-width:1.00104" />
  <g
     id="g56"
     transform="matrix(1,0,0,1.0020738,0,-1.1241945e-6)">
    <path
       d="m 243.47751,400.96645 c 0,0 -21.88623,-23.25875 -23,-12 -0.72478,7.32655 -7.996,45.50598 -3.82573,58.59111 2.07675,6.51626 9.28802,9.85232 15.60435,7.22961 l 52.41907,-21.76585 -6.89868,-14.1383 -41.51891,17.18153 z"
       fill="#a0616a"
       id="path52" />
    <circle
       cx="285.47784"
       cy="421.96677"
       r="11"
       fill="#a0616a"
       id="circle54" />
  </g>
  <g
     id="g64"
     transform="matrix(1,0,0,1.0020738,0,-1.1241945e-6)">
    <polygon
       points="265.17475,643.3048 253.29996,634.51339 230.32443,665.54704 238.37019,671.50365 "
       fill="#a0616a"
       id="polygon60" />
    <path
       d="m 240.51092,674.21048 4.03844,-5.4543 -2.21077,-1.43683 -8.98752,-5.86479 -2.08328,-1.35297 -15.04861,17.1392 -0.80671,0.9189 5.71269,4.22975 0.9037,-0.83655 4.10272,-3.80625 -1.13075,6.00673 -0.2508,1.31996 15.14552,11.21394 c 0.90448,0.66969 1.98926,0.92533 3.02758,0.78863 1.11791,-0.13048 2.17554,-0.70563 2.89561,-1.67815 2.84985,-2.51225 -4.96672,-18.29191 -5.30781,-21.18729 z"
       fill="#2f2e41"
       id="path62" />
  </g>
  <path
     d="m 328.42833,582.42473 -2.03003,2.33479 -5.89996,6.77402 -63.07001,72.05917 -21,-14.02904 c 15.78003,-30.1424 25.92999,-48.67074 42.96997,-61.57744 4.72003,-3.57742 9.98004,-6.72394 16.03003,-9.56979 0,0 -17.47998,-6.39324 -37.88,-14.25956 -1.78998,-0.69143 -3.60999,-1.39284 -5.44,-2.11437 -16.87,-6.56357 -34.82001,-13.80854 -46.10999,-19.12956 -6.87,-3.23674 -10.54999,-8.41744 -12.03998,-14.36976 -4.29004,-16.9651 9.06995,-40.25329 16.46997,-42.92881 l 44,-1.3929 5.42999,33.56948 0.57001,3.50725 c 0,0 16.12,7.80614 33.03998,15.61227 2.54004,1.16244 5.09003,2.33485 7.61005,3.47723 4,1.80372 7.89996,3.54732 11.51996,5.12058 0.0827,0.036 0.16553,0.0719 0.24848,0.10789 10.49055,4.54082 17.02074,15.17587 16.2606,26.60162 l -0.67906,10.207 z"
     fill="#2f2e41"
     id="path66"
     style="stroke-width:1.00104" />
</svg>
